<svg width="119" height="125" viewBox="0 0 119 125" fill="none" xmlns="http://www.w3.org/2000/svg">
<path d="M117.892 62.5C117.892 96.5133 91.6783 124 59.446 124C27.2138 124 1 96.5133 1 62.5C1 28.4867 27.2138 1 59.446 1C91.6783 1 117.892 28.4867 117.892 62.5Z" fill="#103164" stroke="#103164" stroke-width="2"/>
<path d="M78.6161 38.0378C78.6161 50.2734 70.3943 59.8666 60.6189 59.8666C50.8434 59.8666 42.6216 50.2734 42.6216 38.0378C42.6216 25.8021 50.8434 16.2089 60.6189 16.2089C70.3943 16.2089 78.6161 25.8021 78.6161 38.0378Z" fill="white" stroke="#103164" stroke-width="2"/>
<path d="M35.7049 85.3982C37.9565 77.2674 45.3566 71.6382 53.7933 71.6382H65.157C73.4114 71.6382 80.6969 77.0309 83.1078 84.9253C86.7915 96.987 77.7687 109.177 65.157 109.177H53.7933C41.3869 109.177 32.3937 97.3546 35.7049 85.3982Z" fill="white" stroke="#103164" stroke-width="2"/>
</svg>
