<svg width="357" height="376" viewBox="0 0 357 376" fill="none" xmlns="http://www.w3.org/2000/svg">
<path d="M356 187.67C356 290.813 276.484 374.34 178.5 374.34C80.5161 374.34 1 290.813 1 187.67C1 84.5273 80.5161 1 178.5 1C276.484 1 356 84.5273 356 187.67Z" stroke="#103164" stroke-width="2"/>
<path d="M238.066 114.217C238.066 151.703 212.81 181.766 182.023 181.766C151.235 181.766 125.979 151.703 125.979 114.217C125.979 76.7309 151.235 46.6682 182.023 46.6682C212.81 46.6682 238.066 76.7309 238.066 114.217Z" stroke="#103164" stroke-width="2"/>
<path d="M107.183 249.03C113.061 227.803 132.38 213.107 154.405 213.107H202.578C224.128 213.107 243.147 227.185 249.442 247.795L255.16 266.518C264.777 298.007 241.221 329.83 208.297 329.83H149.22C116.831 329.83 93.3534 298.967 101.998 267.753L107.183 249.03Z" stroke="#103164" stroke-width="2"/>
</svg>
