<svg width="99" height="104" viewBox="0 0 99 104" fill="none" xmlns="http://www.w3.org/2000/svg">
<path d="M97.7852 51.9301C97.7852 80.1058 76.0724 102.86 49.3926 102.86C22.7127 102.86 1 80.1058 1 51.9301C1 23.7544 22.7127 1 49.3926 1C76.0724 1 97.7852 23.7544 97.7852 51.9301Z" stroke="white" stroke-width="2"/>
<ellipse cx="50.367" cy="31.6049" rx="15.7845" ry="18.968" fill="white"/>
<path d="M28.866 70.734C30.8365 63.6184 37.3127 58.692 44.6961 58.692H54.138C61.3617 58.692 67.7376 63.4114 69.8476 70.3201C73.0714 80.8759 65.1751 91.5438 54.138 91.5438H44.6961C33.8386 91.5438 25.9682 81.1976 28.866 70.734Z" fill="white"/>
</svg>
