<svg width="61" height="86" viewBox="0 0 61 86" fill="none" xmlns="http://www.w3.org/2000/svg">
<path d="M57.1733 34.064H5.03963C3.78093 34.064 2.83514 35.2128 3.07686 36.4481L10.2058 72.8805C11.5834 79.9206 17.7529 85 24.9266 85H37.0008C44.132 85 50.2774 79.9792 51.6995 72.9912L59.1331 36.4629C59.3853 35.2234 58.4381 34.064 57.1733 34.064Z" stroke="#0D1C7A" stroke-width="2"/>
<rect x="1.21244" y="0.738862" width="18.1684" height="6.39653" rx="3.19827" transform="matrix(0.97272 -0.231981 0.239716 0.970843 18.5806 9.32738)" fill="#FFFBFB" stroke="#0D1C7A" stroke-width="2"/>
<path d="M4.77118 28.6415C3.48747 23.4425 6.66959 18.2208 11.8787 16.9785L47.6349 8.45112C52.8439 7.20883 58.1074 10.4164 59.3911 15.6154C59.4003 15.6527 59.3774 15.6902 59.34 15.6991L4.85561 28.693C4.8182 28.7019 4.7804 28.6789 4.77118 28.6415Z" fill="#FFFBFB" stroke="#0D1C7A" stroke-width="2"/>
<line x1="30.3213" y1="42.684" x2="30.3213" y2="77.1637" stroke="#0D1C7A" stroke-width="2"/>
<line y1="-1" x2="34.4871" y2="-1" transform="matrix(-0.11206 0.993701 -0.99412 -0.108281 42.417 42.7888)" stroke="#0D1C7A" stroke-width="2"/>
<line y1="-1" x2="34.4877" y2="-1" transform="matrix(0.1165 0.993191 -0.993643 0.112575 16.9482 42.0139)" stroke="#0D1C7A" stroke-width="2"/>
</svg>
