<svg width="91" height="95" viewBox="0 0 91 95" fill="none" xmlns="http://www.w3.org/2000/svg">
<path d="M89.358 47.5C89.358 73.229 69.5317 94 45.179 94C20.8262 94 1 73.229 1 47.5C1 21.771 20.8262 1 45.179 1C69.5317 1 89.358 21.771 89.358 47.5Z" stroke="#103164" stroke-width="2"/>
<path d="M59.5077 28.9087C59.5077 38.1184 53.3272 45.2586 46.0698 45.2586C38.8124 45.2586 32.6318 38.1184 32.6318 28.9087C32.6318 19.699 38.8124 12.5588 46.0698 12.5588C53.3272 12.5588 59.5077 19.699 59.5077 28.9087Z" stroke="#103164" stroke-width="2"/>
<path d="M27.3669 64.9667C29.0494 58.8913 34.5788 54.685 40.8828 54.685H49.5193C55.687 54.685 61.1308 58.7145 62.9323 64.6133C65.6848 73.626 58.9428 82.7344 49.5193 82.7344H40.8829C31.6126 82.7344 24.8928 73.9007 27.3669 64.9667Z" stroke="#103164" stroke-width="2"/>
</svg>
