<svg width="291" height="314" viewBox="0 0 291 314" fill="none" xmlns="http://www.w3.org/2000/svg">
<g filter="url(#filter0_d_37:6956)">
<path d="M50.5525 170.75C46.4275 172.229 42.542 172.969 38.8962 172.969C32.5212 172.969 27.3858 171.062 23.49 167.25C19.5941 163.417 17.6462 158.385 17.6462 152.156C17.6462 145.844 19.5837 140.729 23.4587 136.812C27.3337 132.896 32.3962 130.938 38.6462 130.938C42.1879 130.938 45.9795 131.542 50.0212 132.75V138.406C45.8962 136.51 42.042 135.562 38.4587 135.562C34.3129 135.562 30.8962 137.083 28.2087 140.125C25.542 143.167 24.2087 147.042 24.2087 151.75C24.2087 156.5 25.7191 160.385 28.74 163.406C31.7608 166.427 35.6462 167.938 40.3962 167.938C43.2712 167.938 46.6566 167.188 50.5525 165.688V170.75ZM71.5212 172V127.281H58.4275V122.656H77.7087V172H71.5212ZM106.24 147.312V138.062H115.49V147.312H106.24ZM106.24 172V162.75H115.49V172H106.24ZM149.427 172.781C144.448 172.781 140.532 171.208 137.677 168.062C134.844 164.896 133.427 160.552 133.427 155.031C133.427 149.531 134.855 145.208 137.709 142.062C140.563 138.896 144.469 137.312 149.427 137.312C154.407 137.312 158.313 138.896 161.146 142.062C164 145.208 165.427 149.531 165.427 155.031C165.427 160.552 164 164.896 161.146 168.062C158.313 171.208 154.407 172.781 149.427 172.781ZM149.427 168.156C152.386 168.156 154.698 167 156.365 164.688C158.032 162.375 158.865 159.156 158.865 155.031C158.865 150.927 158.032 147.719 156.365 145.406C154.698 143.094 152.386 141.938 149.427 141.938C146.469 141.938 144.157 143.094 142.49 145.406C140.823 147.719 139.99 150.927 139.99 155.031C139.99 159.156 140.823 162.375 142.49 164.688C144.157 167 146.469 168.156 149.427 168.156ZM203.177 170.906C199.532 172.156 195.896 172.781 192.271 172.781C186.355 172.781 181.792 171.24 178.584 168.156C175.396 165.073 173.802 160.698 173.802 155.031C173.802 149.469 175.375 145.125 178.521 142C181.688 138.875 186.084 137.312 191.709 137.312C195.292 137.312 198.907 137.854 202.552 138.938V144.094C198.532 142.656 195.105 141.938 192.271 141.938C188.563 141.938 185.646 143.104 183.521 145.438C181.417 147.771 180.365 150.969 180.365 155.031C180.365 159.135 181.49 162.354 183.74 164.688C186.011 167 189.136 168.156 193.115 168.156C196.094 168.156 199.448 167.458 203.177 166.062V170.906ZM221.927 147.312V138.062H231.177V147.312H221.927ZM221.927 172V162.75H231.177V172H221.927ZM250.826 172V134.992H255.443V158.688L266.131 146.547H271.123L261.068 158.008L273.677 172H267.443L255.443 158.688V172H250.826Z" fill="white"/>
<path d="M50.5525 170.75L50.89 171.691L51.5525 171.454V170.75H50.5525ZM23.49 167.25L22.7886 167.963L22.7905 167.965L23.49 167.25ZM23.4587 136.812L22.7478 136.109L23.4587 136.812ZM50.0212 132.75H51.0212V132.005L50.3077 131.792L50.0212 132.75ZM50.0212 138.406L49.6036 139.315L51.0212 139.966V138.406H50.0212ZM28.2087 140.125L27.4593 139.463L27.4568 139.466L28.2087 140.125ZM50.5525 165.688H51.5525V164.231L50.1931 164.754L50.5525 165.688ZM50.2149 169.809C46.177 171.257 42.4064 171.969 38.8962 171.969V173.969C42.6777 173.969 46.6779 173.202 50.89 171.691L50.2149 169.809ZM38.8962 171.969C32.735 171.969 27.8668 170.134 24.1894 166.535L22.7905 167.965C26.9048 171.991 32.3074 173.969 38.8962 173.969V171.969ZM24.1913 166.537C20.5138 162.919 18.6462 158.158 18.6462 152.156H16.6462C16.6462 158.613 18.6745 163.915 22.7886 167.963L24.1913 166.537ZM18.6462 152.156C18.6462 146.066 20.5072 141.218 24.1696 137.516L22.7478 136.109C18.6603 140.241 16.6462 145.622 16.6462 152.156H18.6462ZM24.1696 137.516C27.8309 133.815 32.6241 131.938 38.6462 131.938V129.938C32.1683 129.938 26.8365 131.977 22.7478 136.109L24.1696 137.516ZM38.6462 131.938C42.0744 131.938 45.7689 132.522 49.7348 133.708L50.3077 131.792C46.1902 130.561 42.3013 129.938 38.6462 129.938V131.938ZM49.0212 132.75V138.406H51.0212V132.75H49.0212ZM50.4388 137.498C46.2166 135.557 42.2193 134.562 38.4587 134.562V136.562C41.8648 136.562 45.5758 137.464 49.6036 139.315L50.4388 137.498ZM38.4587 134.562C34.0332 134.562 30.3412 136.201 27.4593 139.463L28.9581 140.787C31.4512 137.966 34.5925 136.562 38.4587 136.562V134.562ZM27.4568 139.466C24.6045 142.719 23.2087 146.841 23.2087 151.75H25.2087C25.2087 147.242 26.4796 143.614 28.9606 140.784L27.4568 139.466ZM23.2087 151.75C23.2087 156.733 24.8027 160.883 28.0329 164.113L29.4471 162.699C26.6356 159.888 25.2087 156.267 25.2087 151.75H23.2087ZM28.0329 164.113C31.263 167.344 35.4135 168.938 40.3962 168.938V166.938C35.8789 166.938 32.2586 165.511 29.4471 162.699L28.0329 164.113ZM40.3962 168.938C43.4362 168.938 46.9486 168.147 50.9118 166.621L50.1931 164.754C46.3646 166.228 43.1062 166.938 40.3962 166.938V168.938ZM49.5525 165.688V170.75H51.5525V165.688H49.5525ZM71.5212 172H70.5212V173H71.5212V172ZM71.5212 127.281H72.5212V126.281H71.5212V127.281ZM58.4275 127.281H57.4275V128.281H58.4275V127.281ZM58.4275 122.656V121.656H57.4275V122.656H58.4275ZM77.7087 122.656H78.7087V121.656H77.7087V122.656ZM77.7087 172V173H78.7087V172H77.7087ZM72.5212 172V127.281H70.5212V172H72.5212ZM71.5212 126.281H58.4275V128.281H71.5212V126.281ZM59.4275 127.281V122.656H57.4275V127.281H59.4275ZM58.4275 123.656H77.7087V121.656H58.4275V123.656ZM76.7087 122.656V172H78.7087V122.656H76.7087ZM77.7087 171H71.5212V173H77.7087V171ZM106.24 147.312H105.24V148.312H106.24V147.312ZM106.24 138.062V137.062H105.24V138.062H106.24ZM115.49 138.062H116.49V137.062H115.49V138.062ZM115.49 147.312V148.312H116.49V147.312H115.49ZM106.24 172H105.24V173H106.24V172ZM106.24 162.75V161.75H105.24V162.75H106.24ZM115.49 162.75H116.49V161.75H115.49V162.75ZM115.49 172V173H116.49V172H115.49ZM107.24 147.312V138.062H105.24V147.312H107.24ZM106.24 139.062H115.49V137.062H106.24V139.062ZM114.49 138.062V147.312H116.49V138.062H114.49ZM115.49 146.312H106.24V148.312H115.49V146.312ZM107.24 172V162.75H105.24V172H107.24ZM106.24 163.75H115.49V161.75H106.24V163.75ZM114.49 162.75V172H116.49V162.75H114.49ZM115.49 171H106.24V173H115.49V171ZM137.677 168.062L136.932 168.729L136.937 168.734L137.677 168.062ZM137.709 142.062L138.449 142.734L138.452 142.732L137.709 142.062ZM161.146 142.062L160.401 142.729L160.406 142.734L161.146 142.062ZM161.146 168.062L160.403 167.393L160.403 167.393L161.146 168.062ZM149.427 171.781C144.677 171.781 141.05 170.291 138.418 167.391L136.937 168.734C140.014 172.126 144.219 173.781 149.427 173.781V171.781ZM138.423 167.396C135.798 164.462 134.427 160.382 134.427 155.031H132.427C132.427 160.723 133.891 165.33 136.932 168.729L138.423 167.396ZM134.427 155.031C134.427 149.704 135.807 145.647 138.449 142.734L136.968 141.391C133.902 144.769 132.427 149.358 132.427 155.031H134.427ZM138.452 142.732C141.085 139.811 144.702 138.312 149.427 138.312V136.312C144.237 136.312 140.041 137.981 136.966 141.393L138.452 142.732ZM149.427 138.312C154.176 138.312 157.79 139.812 160.401 142.729L161.891 141.396C158.835 137.98 154.637 136.312 149.427 136.312V138.312ZM160.406 142.734C163.048 145.647 164.427 149.704 164.427 155.031H166.427C166.427 149.358 164.952 144.769 161.887 141.391L160.406 142.734ZM164.427 155.031C164.427 160.38 163.048 164.459 160.403 167.393L161.889 168.732C164.953 165.333 166.427 160.724 166.427 155.031H164.427ZM160.403 167.393C157.793 170.291 154.178 171.781 149.427 171.781V173.781C154.635 173.781 158.833 172.126 161.889 168.732L160.403 167.393ZM149.427 169.156C152.693 169.156 155.313 167.857 157.176 165.272L155.554 164.103C154.083 166.143 152.079 167.156 149.427 167.156V169.156ZM157.176 165.272C159.009 162.729 159.865 159.276 159.865 155.031H157.865C157.865 159.036 157.054 162.021 155.554 164.103L157.176 165.272ZM159.865 155.031C159.865 150.806 159.009 147.364 157.176 144.822L155.554 145.991C157.054 148.073 157.865 151.048 157.865 155.031H159.865ZM157.176 144.822C155.313 142.237 152.693 140.938 149.427 140.938V142.938C152.079 142.938 154.083 143.951 155.554 145.991L157.176 144.822ZM149.427 140.938C146.162 140.938 143.542 142.237 141.679 144.822L143.301 145.991C144.772 143.951 146.776 142.938 149.427 142.938V140.938ZM141.679 144.822C139.846 147.364 138.99 150.806 138.99 155.031H140.99C140.99 151.048 141.801 148.073 143.301 145.991L141.679 144.822ZM138.99 155.031C138.99 159.276 139.845 162.729 141.679 165.272L143.301 164.103C141.801 162.021 140.99 159.036 140.99 155.031H138.99ZM141.679 165.272C143.542 167.857 146.162 169.156 149.427 169.156V167.156C146.776 167.156 144.772 166.143 143.301 164.103L141.679 165.272ZM203.177 170.906L203.502 171.852L204.177 171.621V170.906H203.177ZM178.584 168.156L177.888 168.875L177.891 168.877L178.584 168.156ZM178.521 142L177.819 141.288L177.816 141.291L178.521 142ZM202.552 138.938H203.552V138.191L202.837 137.979L202.552 138.938ZM202.552 144.094L202.216 145.035L203.552 145.513V144.094H202.552ZM183.521 145.438L182.782 144.764L182.779 144.768L183.521 145.438ZM183.74 164.688L183.02 165.382L183.026 165.388L183.74 164.688ZM203.177 166.062H204.177V164.62L202.827 165.126L203.177 166.062ZM202.853 169.96C199.305 171.177 195.779 171.781 192.271 171.781V173.781C196.013 173.781 199.758 173.136 203.502 171.852L202.853 169.96ZM192.271 171.781C186.525 171.781 182.244 170.287 179.277 167.435L177.891 168.877C181.34 172.192 186.184 173.781 192.271 173.781V171.781ZM179.279 167.437C176.337 164.591 174.802 160.506 174.802 155.031H172.802C172.802 160.89 174.456 165.554 177.888 168.875L179.279 167.437ZM174.802 155.031C174.802 149.664 176.314 145.602 179.226 142.709L177.816 141.291C174.436 144.648 172.802 149.274 172.802 155.031H174.802ZM179.224 142.712C182.157 139.817 186.274 138.312 191.709 138.312V136.312C185.894 136.312 181.219 137.933 177.819 141.288L179.224 142.712ZM191.709 138.312C195.19 138.312 198.709 138.839 202.268 139.896L202.837 137.979C199.105 136.87 195.394 136.312 191.709 136.312V138.312ZM201.552 138.938V144.094H203.552V138.938H201.552ZM202.889 143.152C198.809 141.694 195.262 140.938 192.271 140.938V142.938C194.947 142.938 198.254 143.619 202.216 145.035L202.889 143.152ZM192.271 140.938C188.335 140.938 185.13 142.186 182.782 144.764L184.261 146.111C186.163 144.022 188.79 142.938 192.271 142.938V140.938ZM182.779 144.768C180.465 147.334 179.365 150.796 179.365 155.031H181.365C181.365 151.142 182.369 148.208 184.264 146.107L182.779 144.768ZM179.365 155.031C179.365 159.322 180.546 162.816 183.02 165.382L184.46 163.993C182.434 161.893 181.365 158.949 181.365 155.031H179.365ZM183.026 165.388C185.527 167.934 188.933 169.156 193.115 169.156V167.156C189.339 167.156 186.495 166.066 184.453 163.987L183.026 165.388ZM193.115 169.156C196.247 169.156 199.722 168.424 203.528 166.999L202.827 165.126C199.174 166.493 195.942 167.156 193.115 167.156V169.156ZM202.177 166.062V170.906H204.177V166.062H202.177ZM221.927 147.312H220.927V148.312H221.927V147.312ZM221.927 138.062V137.062H220.927V138.062H221.927ZM231.177 138.062H232.177V137.062H231.177V138.062ZM231.177 147.312V148.312H232.177V147.312H231.177ZM221.927 172H220.927V173H221.927V172ZM221.927 162.75V161.75H220.927V162.75H221.927ZM231.177 162.75H232.177V161.75H231.177V162.75ZM231.177 172V173H232.177V172H231.177ZM222.927 147.312V138.062H220.927V147.312H222.927ZM221.927 139.062H231.177V137.062H221.927V139.062ZM230.177 138.062V147.312H232.177V138.062H230.177ZM231.177 146.312H221.927V148.312H231.177V146.312ZM222.927 172V162.75H220.927V172H222.927ZM221.927 163.75H231.177V161.75H221.927V163.75ZM230.177 162.75V172H232.177V162.75H230.177ZM231.177 171H221.927V173H231.177V171ZM250.826 172H249.826V173H250.826V172ZM250.826 134.992V133.992H249.826V134.992H250.826ZM255.443 134.992H256.443V133.992H255.443V134.992ZM255.443 158.688H254.443V161.337L256.194 159.348L255.443 158.688ZM266.131 146.547V145.547H265.679L265.38 145.886L266.131 146.547ZM271.123 146.547L271.874 147.206L273.33 145.547H271.123V146.547ZM261.068 158.008L260.316 157.348L259.73 158.017L260.325 158.677L261.068 158.008ZM273.677 172V173H275.925L274.42 171.331L273.677 172ZM267.443 172L266.7 172.67L266.998 173H267.443V172ZM255.443 158.688L256.186 158.018L254.443 156.085V158.688H255.443ZM255.443 172V173H256.443V172H255.443ZM251.826 172V134.992H249.826V172H251.826ZM250.826 135.992H255.443V133.992H250.826V135.992ZM254.443 134.992V158.688H256.443V134.992H254.443ZM256.194 159.348L266.881 147.208L265.38 145.886L254.692 158.027L256.194 159.348ZM266.131 147.547H271.123V145.547H266.131V147.547ZM270.371 145.887L260.316 157.348L261.82 158.667L271.874 147.206L270.371 145.887ZM260.325 158.677L272.935 172.669L274.42 171.331L261.811 157.338L260.325 158.677ZM273.677 171H267.443V173H273.677V171ZM268.186 171.33L256.186 158.018L254.7 159.357L266.7 172.67L268.186 171.33ZM254.443 158.688V172H256.443V158.688H254.443ZM255.443 171H250.826V173H255.443V171Z" fill="white"/>
</g>
<line x1="148.548" y1="158.266" x2="155.691" y2="151.123" stroke="#980427" stroke-width="4"/>
<line x1="147.393" y1="159.821" x2="147.393" y2="147.321" stroke="#980427" stroke-width="4"/>
<g filter="url(#filter1_d_37:6956)">
<path d="M50.1746 237.405L49.2187 238.077C48.9626 237.048 48.613 236.219 48.1697 235.589C47.4695 234.594 46.7839 234.332 46.1131 234.804C45.841 234.996 45.6867 235.244 45.6501 235.548C45.6172 235.85 45.6903 236.314 45.8692 236.94L46.1189 237.818L46.3617 238.65C46.7282 239.947 46.4754 240.902 45.6033 241.516C44.9399 241.983 44.2213 242.09 43.4474 241.838C42.68 241.586 41.9828 241.015 41.356 240.125C40.9206 239.506 40.4904 238.613 40.0652 237.447L41.1554 236.68C41.4027 237.966 41.7533 238.931 42.207 239.576C42.5899 240.12 43.0016 240.48 43.4423 240.654C43.8866 240.826 44.2895 240.785 44.651 240.531C44.9268 240.337 45.0767 240.087 45.1006 239.78C45.1271 239.477 45.0391 238.948 44.8368 238.193L44.5858 237.267C44.3412 236.341 44.2614 235.634 44.3465 235.145C44.4341 234.66 44.7165 234.249 45.1935 233.913C45.8383 233.46 46.4912 233.326 47.1521 233.513C47.8156 233.704 48.4267 234.196 48.9853 234.99C49.4391 235.635 49.8355 236.44 50.1746 237.405Z" fill="white"/>
<path d="M50.8673 251.312C50.0283 250.798 49.3577 250.242 48.8555 249.646C48.0332 248.671 47.6513 247.708 47.7096 246.759C47.7709 245.813 48.2685 244.947 49.2025 244.16C50.0842 243.417 51.0205 243.057 52.0114 243.08C53.0052 243.107 53.8296 243.509 54.4845 244.286C55.1453 245.07 55.3961 245.845 55.237 246.611C55.0807 247.38 54.506 248.183 53.5129 249.02L53.1835 249.298L49.9237 245.43C48.7024 246.59 48.6439 247.825 49.7481 249.136C50.2151 249.69 50.86 250.186 51.6828 250.625L50.8673 251.312ZM50.7238 244.809L53.0321 247.548L53.1785 247.425C54.203 246.561 54.3555 245.703 53.636 244.849C53.2895 244.438 52.8594 244.228 52.3459 244.22C51.8353 244.215 51.2946 244.411 50.7238 244.809Z" fill="white"/>
<path d="M63.513 254.044L58.2737 259.303L57.3196 258.353L58.3038 257.365C57.1281 257.667 56.161 257.44 55.4022 256.684C54.4078 255.693 54.5024 254.604 55.686 253.416L59.2706 249.817L60.2247 250.768L56.9006 254.105C56.4889 254.518 56.2592 254.874 56.2114 255.174C56.1669 255.471 56.2963 255.77 56.5998 256.073C57.0777 256.549 57.9223 256.702 59.1336 256.532L62.559 253.093L63.513 254.044Z" fill="white"/>
<path d="M69.4463 271.995L75.2408 263.693L76.3451 264.464L75.5469 265.608C76.676 265.129 77.6367 265.166 78.429 265.719C79.1203 266.201 79.4775 266.848 79.5007 267.659C79.5301 268.469 79.224 269.333 78.5824 270.252C77.8781 271.261 77.0727 271.914 76.1663 272.209C75.2598 272.504 74.4254 272.386 73.663 271.854C73.0091 271.397 72.6471 270.734 72.5773 269.862L70.5506 272.766L69.4463 271.995ZM73.1563 269.033C73.2823 269.943 73.5937 270.572 74.0908 270.919C74.5766 271.258 75.1008 271.307 75.6635 271.066C76.2325 270.824 76.7857 270.318 77.323 269.548C78.3247 268.113 78.3976 267.097 77.5418 266.5C76.9177 266.064 76.0598 266.043 74.9679 266.437L73.1563 269.033Z" fill="white"/>
<path d="M82.8675 277.608C81.9236 277.064 81.3527 276.339 81.1549 275.431C80.9634 274.521 81.1688 273.543 81.7713 272.496C82.3716 271.454 83.1139 270.79 83.9983 270.505C84.885 270.216 85.7983 270.342 86.7384 270.883C87.6823 271.427 88.2501 272.153 88.4416 273.063C88.6394 273.971 88.4382 274.946 87.838 275.989C87.2355 277.035 86.4909 277.703 85.6042 277.992C84.7237 278.279 83.8115 278.151 82.8675 277.608ZM83.3723 276.731C83.9331 277.054 84.4977 277.087 85.0661 276.83C85.6344 276.574 86.1437 276.055 86.5938 275.273C87.0417 274.494 87.2339 273.795 87.1703 273.175C87.1067 272.555 86.7945 272.083 86.2336 271.76C85.6728 271.437 85.1082 271.404 84.5398 271.661C83.9715 271.917 83.4634 272.435 83.0155 273.213C82.5653 273.995 82.372 274.696 82.4356 275.316C82.4992 275.936 82.8114 276.408 83.3723 276.731Z" fill="white"/>
<path d="M90.2449 281.322L93.3751 274.59L94.5962 275.158L94.0082 276.422C95.0084 275.742 95.9919 275.626 96.9589 276.076C98.2358 276.669 98.5216 277.725 97.8164 279.241L95.6748 283.847L94.4537 283.279L96.4396 279.008C96.6837 278.483 96.774 278.073 96.7105 277.777C96.6531 277.479 96.4323 277.24 96.048 277.062C95.4364 276.777 94.5912 276.92 93.5125 277.489L91.466 281.889L90.2449 281.322Z" fill="white"/>
<path d="M106.455 287.928C105.781 287.81 105.148 287.643 104.557 287.428C103.525 287.054 102.889 286.614 102.65 286.111C102.413 285.603 102.481 284.833 102.856 283.8L104.078 280.433L102.337 279.801L102.682 278.85L104.424 279.482L104.969 277.978L106.242 278.44L105.696 279.944L108.787 281.066L108.441 282.017L105.351 280.895L104.054 284.468C103.909 284.866 103.833 285.149 103.826 285.316C103.823 285.484 103.882 285.654 104.005 285.824C104.226 286.123 104.615 286.373 105.172 286.575C105.699 286.767 106.243 286.896 106.805 286.965L106.455 287.928Z" fill="white"/>
<path d="M114.016 290.277C112.964 289.996 112.225 289.442 111.8 288.616C111.38 287.787 111.326 286.789 111.637 285.622C111.948 284.46 112.494 283.627 113.275 283.123C114.057 282.615 114.972 282.501 116.019 282.781C117.072 283.062 117.808 283.618 118.228 284.447C118.653 285.273 118.711 286.267 118.4 287.429C118.088 288.596 117.541 289.434 116.759 289.942C115.983 290.446 115.068 290.558 114.016 290.277ZM114.277 289.299C114.903 289.467 115.457 289.353 115.939 288.958C116.422 288.564 116.78 287.93 117.013 287.059C117.245 286.191 117.25 285.466 117.028 284.883C116.807 284.301 116.383 283.926 115.758 283.759C115.133 283.591 114.579 283.705 114.096 284.1C113.613 284.494 113.256 285.125 113.024 285.993C112.791 286.864 112.786 287.592 113.007 288.175C113.229 288.757 113.652 289.132 114.277 289.299Z" fill="white"/>
<path d="M133.203 293.617L133.849 286.221L135.19 286.339L135.069 287.728C135.777 286.747 136.662 286.302 137.724 286.395C139.127 286.517 139.756 287.412 139.61 289.078L139.169 294.138L137.827 294.021L138.237 289.329C138.287 288.752 138.232 288.335 138.071 288.079C137.916 287.818 137.627 287.67 137.204 287.633C136.533 287.574 135.787 287.996 134.967 288.899L134.545 293.734L133.203 293.617Z" fill="white"/>
<path d="M148.87 293.407C148.054 294.091 147.241 294.433 146.43 294.433C145.75 294.433 145.19 294.239 144.748 293.852C144.31 293.464 144.092 292.974 144.092 292.382C144.092 291.612 144.433 290.992 145.117 290.523C145.801 290.053 146.703 289.818 147.824 289.818H148.658V289.183C148.658 288.659 148.542 288.285 148.309 288.062C148.077 287.838 147.692 287.727 147.154 287.727C146.375 287.727 145.568 287.945 144.734 288.383V287.228C145.691 286.886 146.589 286.715 147.428 286.715C148.371 286.715 149.036 286.902 149.424 287.276C149.816 287.649 150.012 288.294 150.012 289.21V292.32C150.012 292.767 150.059 293.072 150.155 293.236C150.251 293.396 150.431 293.476 150.695 293.476C150.782 293.476 150.923 293.453 151.119 293.407L151.242 294.214C150.791 294.36 150.449 294.433 150.217 294.433C149.551 294.433 149.102 294.091 148.87 293.407ZM148.658 292.532V290.659H148.255C146.409 290.659 145.486 291.158 145.486 292.156C145.486 292.516 145.605 292.806 145.842 293.025C146.079 293.243 146.393 293.353 146.785 293.353C147.373 293.353 147.997 293.079 148.658 292.532Z" fill="white"/>
<path d="M166.779 292.747L164.909 282.116L166.235 281.883L166.819 285.202L167.06 286.575C167.491 285.444 168.231 284.787 169.281 284.602C170.668 284.358 171.507 285.06 171.796 286.707L172.676 291.709L171.35 291.943L170.534 287.304C170.434 286.734 170.273 286.346 170.052 286.139C169.834 285.928 169.516 285.859 169.099 285.932C168.435 286.049 167.823 286.649 167.264 287.733L168.105 292.513L166.779 292.747Z" fill="white"/>
<path d="M180.696 289.914C179.643 290.195 178.727 290.084 177.946 289.58C177.168 289.071 176.624 288.233 176.312 287.066C176.001 285.904 176.059 284.91 176.484 284.084C176.908 283.253 177.644 282.698 178.692 282.418C179.745 282.137 180.659 282.251 181.437 282.76C182.218 283.264 182.764 284.097 183.074 285.259C183.386 286.426 183.33 287.424 182.906 288.255C182.485 289.079 181.748 289.633 180.696 289.914ZM180.434 288.936C181.06 288.769 181.483 288.394 181.705 287.811C181.926 287.229 181.921 286.501 181.688 285.63C181.456 284.762 181.098 284.131 180.616 283.737C180.133 283.342 179.579 283.228 178.954 283.395C178.328 283.563 177.905 283.938 177.683 284.52C177.462 285.103 177.467 285.828 177.699 286.696C177.932 287.567 178.29 288.201 178.772 288.595C179.255 288.99 179.809 289.103 180.434 288.936Z" fill="white"/>
<path d="M189.353 287.044L186.82 280.066L188.086 279.607L188.561 280.917C188.849 279.708 189.535 278.906 190.619 278.512C191 278.374 191.452 278.27 191.975 278.202L192.694 280.181L191.743 280.526L191.391 279.556C191.187 279.581 191.007 279.622 190.853 279.678C190.369 279.854 189.984 280.122 189.698 280.483C189.415 280.838 189.172 281.358 188.97 282.042L190.619 286.585L189.353 287.044Z" fill="white"/>
<path d="M202.661 280.542C202.209 281.506 201.616 282.159 200.88 282.501C200.265 282.787 199.675 282.848 199.11 282.683C198.55 282.516 198.145 282.164 197.896 281.627C197.571 280.929 197.619 280.223 198.041 279.509C198.463 278.795 199.183 278.202 200.199 277.729L200.955 277.377L200.687 276.801C200.466 276.326 200.203 276.036 199.898 275.931C199.594 275.827 199.197 275.888 198.71 276.115C198.003 276.443 197.364 276.982 196.792 277.73L196.305 276.683C197.029 275.969 197.771 275.436 198.531 275.082C199.386 274.684 200.068 274.573 200.577 274.749C201.09 274.922 201.54 275.424 201.926 276.255L203.238 279.075C203.426 279.48 203.598 279.737 203.754 279.845C203.908 279.95 204.105 279.946 204.345 279.835C204.423 279.798 204.542 279.718 204.7 279.594L205.152 280.273C204.804 280.596 204.525 280.806 204.314 280.904C203.711 281.185 203.16 281.064 202.661 280.542ZM202.1 279.838L201.31 278.14L200.944 278.31C199.271 279.088 198.644 279.93 199.065 280.835C199.217 281.161 199.446 281.374 199.753 281.472C200.06 281.57 200.392 281.537 200.747 281.372C201.28 281.124 201.731 280.613 202.1 279.838Z" fill="white"/>
<path d="M223.647 268.592C223.149 269.273 222.575 269.84 221.925 270.294C220.864 271.035 219.852 271.329 218.891 271.178C217.933 271.024 217.099 270.439 216.39 269.422C215.693 268.425 215.432 267.448 215.605 266.494C215.782 265.537 216.374 264.706 217.383 264.002C218.026 263.553 218.742 263.198 219.532 262.936L220.178 263.861C219.276 264.106 218.572 264.407 218.063 264.761C217.398 265.226 217.021 265.8 216.932 266.485C216.847 267.167 217.058 267.872 217.567 268.601C218.081 269.337 218.686 269.773 219.381 269.91C220.078 270.041 220.784 269.857 221.497 269.359C222.032 268.986 222.546 268.441 223.04 267.723L223.647 268.592Z" fill="white"/>
<path d="M232.27 261.489C231.752 262.326 231.194 262.995 230.596 263.494C229.618 264.313 228.654 264.691 227.705 264.629C226.759 264.564 225.895 264.063 225.112 263.126C224.372 262.242 224.016 261.304 224.042 260.313C224.073 259.32 224.478 258.497 225.257 257.845C226.044 257.187 226.82 256.939 227.585 257.101C228.354 257.261 229.155 257.838 229.988 258.835L230.264 259.165L226.384 262.41C227.539 263.636 228.775 263.699 230.089 262.6C230.645 262.135 231.144 261.492 231.586 260.671L232.27 261.489ZM225.766 261.608L228.514 259.31L228.391 259.163C227.532 258.135 226.674 257.979 225.817 258.696C225.405 259.041 225.193 259.47 225.183 259.983C225.176 260.494 225.371 261.035 225.766 261.608Z" fill="white"/>
<path d="M236.686 257.703L231.447 252.443L232.401 251.493L233.385 252.481C233.136 251.262 233.42 250.246 234.237 249.432C234.524 249.146 234.89 248.862 235.336 248.579L236.821 250.071L236.105 250.785L235.376 250.053C235.202 250.162 235.057 250.275 234.941 250.391C234.576 250.754 234.34 251.16 234.232 251.608C234.125 252.049 234.124 252.622 234.229 253.328L237.64 256.752L236.686 257.703Z" fill="white"/>
<path d="M247.867 245.372C247.523 245.965 247.148 246.501 246.743 246.982C246.035 247.822 245.404 248.267 244.849 248.318C244.29 248.365 243.591 248.035 242.751 247.328L240.012 245.019L238.818 246.436L238.044 245.784L239.238 244.367L238.015 243.336L238.887 242.301L240.11 243.332L242.229 240.818L243.003 241.47L240.884 243.984L243.79 246.433C244.114 246.707 244.354 246.875 244.508 246.94C244.665 247.001 244.845 247.003 245.047 246.947C245.404 246.842 245.773 246.563 246.154 246.11C246.516 245.682 246.825 245.216 247.083 244.712L247.867 245.372Z" fill="white"/>
<path d="M252.664 237.253C252.754 238.313 252.565 239.175 252.098 239.839C251.707 240.394 251.226 240.741 250.655 240.88C250.087 241.014 249.56 240.911 249.076 240.57C248.446 240.127 248.136 239.491 248.145 238.662C248.155 237.833 248.482 236.96 249.127 236.043L249.607 235.361L249.087 234.995C248.659 234.693 248.286 234.573 247.97 234.635C247.653 234.696 247.34 234.947 247.031 235.387C246.582 236.024 246.297 236.81 246.175 237.743L245.23 237.079C245.501 236.099 245.878 235.267 246.361 234.581C246.904 233.809 247.439 233.373 247.968 233.271C248.499 233.166 249.139 233.376 249.888 233.904L252.432 235.694C252.797 235.951 253.075 236.087 253.264 236.103C253.449 236.117 253.618 236.016 253.77 235.799C253.82 235.729 253.883 235.6 253.958 235.413L254.689 235.777C254.548 236.23 254.411 236.551 254.278 236.742C253.895 237.286 253.357 237.456 252.664 237.253ZM251.827 236.923L250.295 235.845L250.063 236.174C249 237.684 248.877 238.726 249.694 239.3C249.988 239.507 250.293 239.577 250.608 239.509C250.923 239.441 251.194 239.247 251.419 238.926C251.758 238.446 251.893 237.778 251.827 236.923Z" fill="white"/>
</g>
<g filter="url(#filter2_di_37:6956)">
<circle cx="145.5" cy="162.5" r="136.5" stroke="#980427" stroke-width="2" shape-rendering="crispEdges"/>
</g>
<g filter="url(#filter3_di_37:6956)">
<circle cx="145.5" cy="164.5" r="140.5" stroke="#980427" stroke-width="2" shape-rendering="crispEdges"/>
</g>
<g filter="url(#filter4_di_37:6956)">
<path d="M125 18C125 8.05887 133.059 0 143 0H154C163.941 0 172 8.05888 172 18V18C172 22.9706 167.971 27 163 27H134C129.029 27 125 22.9706 125 18V18Z" fill="#980427"/>
</g>
<defs>
<filter id="filter0_d_37:6956" x="13.6462" y="122.656" width="264.031" height="58.3125" filterUnits="userSpaceOnUse" color-interpolation-filters="sRGB">
<feFlood flood-opacity="0" result="BackgroundImageFix"/>
<feColorMatrix in="SourceAlpha" type="matrix" values="0 0 0 0 0 0 0 0 0 0 0 0 0 0 0 0 0 0 127 0" result="hardAlpha"/>
<feOffset dy="4"/>
<feGaussianBlur stdDeviation="2"/>
<feComposite in2="hardAlpha" operator="out"/>
<feColorMatrix type="matrix" values="0 0 0 0 0 0 0 0 0 0 0 0 0 0 0 0 0 0 0.25 0"/>
<feBlend mode="normal" in2="BackgroundImageFix" result="effect1_dropShadow_37:6956"/>
<feBlend mode="normal" in="SourceGraphic" in2="effect1_dropShadow_37:6956" result="shape"/>
</filter>
<filter id="filter1_d_37:6956" x="35.6683" y="231.461" width="223.199" height="70.9713" filterUnits="userSpaceOnUse" color-interpolation-filters="sRGB">
<feFlood flood-opacity="0" result="BackgroundImageFix"/>
<feColorMatrix in="SourceAlpha" type="matrix" values="0 0 0 0 0 0 0 0 0 0 0 0 0 0 0 0 0 0 127 0" result="hardAlpha"/>
<feOffset dy="4"/>
<feGaussianBlur stdDeviation="2"/>
<feComposite in2="hardAlpha" operator="out"/>
<feColorMatrix type="matrix" values="0 0 0 0 0 0 0 0 0 0 0 0 0 0 0 0 0 0 0.25 0"/>
<feBlend mode="normal" in2="BackgroundImageFix" result="effect1_dropShadow_37:6956"/>
<feBlend mode="normal" in="SourceGraphic" in2="effect1_dropShadow_37:6956" result="shape"/>
</filter>
<filter id="filter2_di_37:6956" x="4" y="25" width="283" height="283" filterUnits="userSpaceOnUse" color-interpolation-filters="sRGB">
<feFlood flood-opacity="0" result="BackgroundImageFix"/>
<feColorMatrix in="SourceAlpha" type="matrix" values="0 0 0 0 0 0 0 0 0 0 0 0 0 0 0 0 0 0 127 0" result="hardAlpha"/>
<feOffset dy="4"/>
<feGaussianBlur stdDeviation="2"/>
<feComposite in2="hardAlpha" operator="out"/>
<feColorMatrix type="matrix" values="0 0 0 0 0 0 0 0 0 0 0 0 0 0 0 0 0 0 0.25 0"/>
<feBlend mode="normal" in2="BackgroundImageFix" result="effect1_dropShadow_37:6956"/>
<feBlend mode="normal" in="SourceGraphic" in2="effect1_dropShadow_37:6956" result="shape"/>
<feColorMatrix in="SourceAlpha" type="matrix" values="0 0 0 0 0 0 0 0 0 0 0 0 0 0 0 0 0 0 127 0" result="hardAlpha"/>
<feOffset dy="4"/>
<feGaussianBlur stdDeviation="2"/>
<feComposite in2="hardAlpha" operator="arithmetic" k2="-1" k3="1"/>
<feColorMatrix type="matrix" values="0 0 0 0 0 0 0 0 0 0 0 0 0 0 0 0 0 0 0.25 0"/>
<feBlend mode="normal" in2="shape" result="effect2_innerShadow_37:6956"/>
</filter>
<filter id="filter3_di_37:6956" x="0" y="23" width="291" height="291" filterUnits="userSpaceOnUse" color-interpolation-filters="sRGB">
<feFlood flood-opacity="0" result="BackgroundImageFix"/>
<feColorMatrix in="SourceAlpha" type="matrix" values="0 0 0 0 0 0 0 0 0 0 0 0 0 0 0 0 0 0 127 0" result="hardAlpha"/>
<feOffset dy="4"/>
<feGaussianBlur stdDeviation="2"/>
<feComposite in2="hardAlpha" operator="out"/>
<feColorMatrix type="matrix" values="0 0 0 0 0 0 0 0 0 0 0 0 0 0 0 0 0 0 0.25 0"/>
<feBlend mode="normal" in2="BackgroundImageFix" result="effect1_dropShadow_37:6956"/>
<feBlend mode="normal" in="SourceGraphic" in2="effect1_dropShadow_37:6956" result="shape"/>
<feColorMatrix in="SourceAlpha" type="matrix" values="0 0 0 0 0 0 0 0 0 0 0 0 0 0 0 0 0 0 127 0" result="hardAlpha"/>
<feOffset dy="4"/>
<feGaussianBlur stdDeviation="2"/>
<feComposite in2="hardAlpha" operator="arithmetic" k2="-1" k3="1"/>
<feColorMatrix type="matrix" values="0 0 0 0 0 0 0 0 0 0 0 0 0 0 0 0 0 0 0.25 0"/>
<feBlend mode="normal" in2="shape" result="effect2_innerShadow_37:6956"/>
</filter>
<filter id="filter4_di_37:6956" x="121" y="0" width="55" height="35" filterUnits="userSpaceOnUse" color-interpolation-filters="sRGB">
<feFlood flood-opacity="0" result="BackgroundImageFix"/>
<feColorMatrix in="SourceAlpha" type="matrix" values="0 0 0 0 0 0 0 0 0 0 0 0 0 0 0 0 0 0 127 0" result="hardAlpha"/>
<feOffset dy="4"/>
<feGaussianBlur stdDeviation="2"/>
<feComposite in2="hardAlpha" operator="out"/>
<feColorMatrix type="matrix" values="0 0 0 0 0 0 0 0 0 0 0 0 0 0 0 0 0 0 0.25 0"/>
<feBlend mode="normal" in2="BackgroundImageFix" result="effect1_dropShadow_37:6956"/>
<feBlend mode="normal" in="SourceGraphic" in2="effect1_dropShadow_37:6956" result="shape"/>
<feColorMatrix in="SourceAlpha" type="matrix" values="0 0 0 0 0 0 0 0 0 0 0 0 0 0 0 0 0 0 127 0" result="hardAlpha"/>
<feOffset dy="4"/>
<feGaussianBlur stdDeviation="2"/>
<feComposite in2="hardAlpha" operator="arithmetic" k2="-1" k3="1"/>
<feColorMatrix type="matrix" values="0 0 0 0 0 0 0 0 0 0 0 0 0 0 0 0 0 0 0.25 0"/>
<feBlend mode="normal" in2="shape" result="effect2_innerShadow_37:6956"/>
</filter>
</defs>
</svg>
